<svg width="27" height="26" viewBox="22 0 27 26" fill="none" xmlns="http://www.w3.org/2000/svg" xmlns:xlink="http://www.w3.org/1999/xlink"><g clip-path="url(#clip0_0_161)" fill="#333"><path d="M45.635 21.104l1.278 2.95c.237.544.887.801 1.455.575.568-.223.838-.846.602-1.39l-1.278-2.95-2.057.815z"/><path d="M46.488 23.07l2.057-.814-2.057.815zm-3.551-8.193l2.91 1.152-2.91-1.152zm1.583-5.981c0 1.568-1.329 2.839-2.967 2.839-1.64 0-2.97-1.27-2.97-2.839 0-1.567 1.33-2.837 2.97-2.837 1.638 0 2.967 1.27 2.967 2.837z"/><path d="M43.036 8.896c0 .785-.664 1.42-1.483 1.42-.82 0-1.486-.635-1.486-1.42 0-.783.666-1.419 1.486-1.419.819 0 1.483.636 1.483 1.42zM39.47 10.92l-4.06 9.37-1.018 4.205.686.271 2.39-3.662.568-1.31c-.443-1.025.065-2.2 1.136-2.623l2.355-5.437a3.03 3.03 0 01-2.056-.814zm4.163-.001c-.531.5-1.256.809-2.057.815l3.493 8.058 2.056-.814-3.492-8.06zm-.968-6.279V1.445c0-.588-.5-1.065-1.113-1.065-.615 0-1.113.476-1.113 1.065V4.64h2.226zm-1.112 1.419c.19 0 .375.018.555.05V4.64h-1.112v1.47c.18-.032.365-.05.557-.05zM26.096 25.94h-3.703V.38h3.703c.819 0 1.481.637 1.481 1.421v22.72c0 .785-.663 1.42-1.481 1.42z"/><path d="M25.911 2.511a.545.545 0 00.556-.532.545.545 0 00-.556-.533.544.544 0 00-.556.533c0 .294.25.532.556.532zM30.17 15.47c0 .293.248.532.555.532.307 0 .556-.24.556-.532a.545.545 0 01-.556.532.545.545 0 01-.556-.532z"/><path d="M30.91.38c-.408 0-.74.32-.74.712v14.91l1.11 4.26 1.111-4.26V1.092c0-.392-.331-.71-.74-.71L30.91.38z"/></g><path d="M68.552 31.405H0v12.452h68.552V31.405z" fill="url(#pattern0)"/><defs><clipPath id="clip0_0_161"><path fill="#fff" transform="translate(1.448 .143)" d="M0 0h68.552v41.527H0z"/></clipPath><pattern id="pattern0" patternContentUnits="objectBoundingBox" width="1" height="1"><use xlink:href="#image0_0_161" transform="scale(.0009 .00478)"/></pattern></defs></svg>